<svg width="128" height="128" viewBox="0 0 128 128" fill="none" xmlns="http://www.w3.org/2000/svg">
<path d="M103.428 12H24.1905C17.4579 12 12 17.4579 12 24.1905V103.428C12 110.161 17.4579 115.619 24.1905 115.619H103.428C110.161 115.619 115.619 110.161 115.619 103.428V24.1905C115.619 17.4579 110.161 12 103.428 12Z" fill="#2D3439"/>
<path d="M68 83.6364V77.0909C68 74.6809 69.9536 72.7273 72.3636 72.7273H78.9091C81.3191 72.7273 83.2727 74.6809 83.2727 77.0909V83.6364M68 83.6364C68 86.0464 69.9536 88 72.3636 88H78.9091C81.3191 88 83.2727 86.0464 83.2727 83.6364M68 83.6364L72.4385 80.6774C73.7415 79.8088 75.4099 79.7049 76.8104 80.4053L83.2727 83.6364M68 59.6364C68 62.0464 69.9536 64 72.3636 64H78.9091C81.3191 64 83.2727 62.0464 83.2727 59.6364M68 59.6364V44.3636C68 41.9537 69.9536 40 72.3636 40H78.9091C81.3191 40 83.2727 41.9537 83.2727 44.3636V59.6364M68 59.6364C68 58.2733 68.6812 57.0004 69.8155 56.2443L72.4385 54.4956C73.7415 53.627 75.4099 53.5231 76.8104 54.2234L81.3213 56.4788C82.5172 57.0768 83.2727 58.2992 83.2727 59.6364M44 83.6364C44 86.0464 45.9537 88 48.3636 88H54.9091C57.3191 88 59.2727 86.0464 59.2727 83.6364M44 83.6364V68.3636C44 65.9536 45.9537 64 48.3636 64H54.9091C57.3191 64 59.2727 65.9536 59.2727 68.3636V83.6364M44 83.6364C44 82.2734 44.6812 81.0003 45.8154 80.2443L48.4385 78.4956C49.7414 77.627 51.4098 77.5231 52.8104 78.2235L57.3212 80.4788C58.5173 81.0769 59.2727 82.2991 59.2727 83.6364M44 50.9091V44.3636C44 41.9537 45.9537 40 48.3636 40H54.9091C57.3191 40 59.2727 41.9537 59.2727 44.3636V50.9091M44 50.9091C44 53.3191 45.9537 55.2727 48.3636 55.2727H54.9091C57.3191 55.2727 59.2727 53.3191 59.2727 50.9091M44 50.9091L48.4385 47.9501C49.7414 47.0815 51.4098 46.9776 52.8104 47.6779L59.2727 50.9091M52.7273 70.5455H52.9455M76.7273 46.5455H76.9455" stroke="white" stroke-width="2" stroke-linecap="round"/>
<rect x="88" width="40" height="40" rx="20" fill="#FF6900"/>
<path d="M95.5132 18.3704C95.5132 18.687 95.2494 18.8981 94.9855 18.8981C94.7216 18.8981 94.4578 18.687 94.4578 18.3704C94.4578 18.3176 94.4578 18.212 94.4578 18.1593C94.5105 17.9482 94.7216 17.7898 94.9855 17.7898C95.2494 17.8426 95.5132 18.0537 95.5132 18.3704Z" fill="white"/>
<path d="M121.478 20.0064C121.478 27.5003 115.357 33.5693 107.863 33.5693H106.385C104.907 33.5693 103.746 32.4083 103.746 30.9306V19.1092C103.746 17.6315 104.907 16.4705 106.385 16.4705C107.863 16.4705 109.024 17.6315 109.024 19.1092V28.1864C113.034 27.6059 116.148 24.1755 116.148 19.9536C116.148 15.3622 112.454 11.668 107.863 11.668C106.385 11.668 105.013 12.0374 103.852 12.7235C102.427 13.5151 101.266 14.7289 100.527 16.2066C100.474 16.3122 100.158 16.9982 99.9464 17.6843C99.8409 17.9482 99.6298 18.1065 99.3659 18.0537C99.0493 18.0009 98.8382 17.6843 98.9437 17.4204C99.1548 16.5233 99.4714 15.9427 99.5242 15.89C99.6298 15.6261 99.5242 15.3622 99.2604 15.2567H99.2076C98.9437 15.1511 98.6271 15.2567 98.5215 15.4678C98.4687 15.6261 98.3632 15.7316 98.3104 15.89C97.941 16.7871 97.6771 17.7371 97.5188 18.687C97.5188 18.7398 97.466 19.2147 97.466 19.2675C97.466 19.5314 97.2022 19.7953 96.9383 19.7425C96.6216 19.7425 96.4105 19.4786 96.4633 19.2147C96.5161 18.3176 96.7272 17.3676 96.9383 16.576C96.9383 16.5233 96.9383 16.5233 96.9911 16.4705C96.9911 16.2594 96.8327 16.0483 96.6216 15.9427C96.3578 15.8372 96.0939 15.9955 95.9883 16.2594C95.9883 16.3122 95.83 16.7344 95.7772 16.9454C95.7245 17.2093 95.4606 17.3676 95.144 17.3149C94.8801 17.2621 94.669 16.9982 94.7218 16.7344C94.8801 16.1538 95.144 15.3622 95.3023 14.8873C96.3578 12.2485 98.2576 10.032 100.632 8.50157C102.743 7.18221 105.224 6.39059 107.915 6.39059C115.409 6.39059 121.478 12.5124 121.478 20.0064Z" fill="white"/>
</svg>
